<?xml version="1.0" encoding="UTF-8"?>
<svg id="Layer_1" data-name="Layer 1" xmlns="http://www.w3.org/2000/svg" viewBox="0 0 1000 268">
  <defs>
    <style>
      .cls-1 {
        opacity: .5;
      }

      .cls-2 {
        fill: #ccc;
      }

      .cls-2, .cls-3 {
        stroke-width: 0px;
      }

      .cls-3 {
        fill: #fff;
      }
    </style>
  </defs>
  <g class="cls-1">
    <path class="cls-2" d="m143.02,243.61c0,14.85-7.43,22.27-22.27,22.27H44.11c-14.44,0-21.65-7.42-21.65-22.27V44.55c0-14.95,7.37-22.43,22.12-22.43h76.17c14.85,0,22.27,7.48,22.27,22.43v52.02h-36.6v-43.15h-47.51v181.15h47.51v-68.22h-27.1v-31h63.71v108.26Z"/>
    <path class="cls-2" d="m295.05,243.61c0,14.85-7.37,22.27-22.12,22.27h-79.13c-14.44,0-21.65-7.42-21.65-22.27V44.55c0-14.95,7.22-22.43,21.65-22.43h79.13c14.74,0,22.12,7.48,22.12,22.43v199.06Zm-36.45-9.03V53.43h-50v181.15h50Z"/>
    <path class="cls-2" d="m447.23,243.61c0,14.85-7.37,22.27-22.12,22.27h-79.13c-14.44,0-21.65-7.42-21.65-22.27V44.55c0-14.95,7.22-22.43,21.65-22.43h79.13c14.74,0,22.12,7.48,22.12,22.43v199.06Zm-36.45-9.03V53.43h-50v181.15h50Z"/>
    <path class="cls-2" d="m600.03,265.89h-31.93l-58.41-153.43c1.56,7.48,2.34,13.34,2.34,17.6v135.83h-35.51V22.12h31.93l58.41,150.31c-1.56-7.48-2.34-13.34-2.34-17.6V22.12h35.51v243.77Z"/>
    <path class="cls-2" d="m750.81,219.94c0,14.33-4.26,25.57-12.77,33.72-8.52,8.15-19.99,12.23-34.42,12.23h-74.3V22.12h74.3c14.43,0,25.91,4.13,34.42,12.38,8.51,8.26,12.77,19.55,12.77,33.88v151.56Zm-36.61-6.08V73.83c0-13.6-7.11-20.4-21.34-20.4h-27.1v181.15h26.17c14.85,0,22.27-6.9,22.27-20.72Z"/>
    <path class="cls-2" d="m874.8,265.89h-95.79V22.12h36.45v211.21h59.35v32.55Z"/>
    <path class="cls-2" d="m997.54,265.89h-101.09V22.12h100.16v32.24h-63.71v71.18h54.83v31.62h-54.83v76.48h64.64v32.24Z"/>
  </g>
  <g>
    <path class="cls-3" d="m133.02,233.61c0,14.85-7.43,22.27-22.27,22.27H34.11c-14.44,0-21.65-7.42-21.65-22.27V34.55c0-14.95,7.37-22.43,22.12-22.43h76.17c14.85,0,22.27,7.48,22.27,22.43v52.02h-36.6v-43.15h-47.51v181.15h47.51v-68.22h-27.1v-31h63.71v108.26Z"/>
    <path class="cls-3" d="m285.05,233.61c0,14.85-7.37,22.27-22.12,22.27h-79.13c-14.44,0-21.65-7.42-21.65-22.27V34.55c0-14.95,7.22-22.43,21.65-22.43h79.13c14.74,0,22.12,7.48,22.12,22.43v199.06Zm-36.45-9.03V43.43h-50v181.15h50Z"/>
    <path class="cls-3" d="m437.23,233.61c0,14.85-7.37,22.27-22.12,22.27h-79.13c-14.44,0-21.65-7.42-21.65-22.27V34.55c0-14.95,7.22-22.43,21.65-22.43h79.13c14.74,0,22.12,7.48,22.12,22.43v199.06Zm-36.45-9.03V43.43h-50v181.15h50Z"/>
    <path class="cls-3" d="m590.03,255.89h-31.93l-58.41-153.43c1.56,7.48,2.34,13.34,2.34,17.6v135.83h-35.51V12.12h31.93l58.41,150.31c-1.56-7.48-2.34-13.34-2.34-17.6V12.12h35.51v243.77Z"/>
    <path class="cls-3" d="m740.81,209.94c0,14.33-4.26,25.57-12.77,33.72-8.52,8.15-19.99,12.23-34.42,12.23h-74.3V12.12h74.3c14.43,0,25.91,4.13,34.42,12.38,8.51,8.26,12.77,19.55,12.77,33.88v151.56Zm-36.61-6.08V63.83c0-13.6-7.11-20.4-21.34-20.4h-27.1v181.15h26.17c14.85,0,22.27-6.9,22.27-20.72Z"/>
    <path class="cls-3" d="m864.8,255.89h-95.79V12.12h36.45v211.21h59.35v32.55Z"/>
    <path class="cls-3" d="m987.54,255.89h-101.09V12.12h100.16v32.24h-63.71v71.18h54.83v31.62h-54.83v76.48h64.64v32.24Z"/>
  </g>
</svg>